<svg xmlns="http://www.w3.org/2000/svg" viewBox="0 0 50.8 17.198" height="65" width="192"><path d="M6.964 16.28c0-.497-.14-.95-.31-1.007-.171-.057-.32-.624-.331-1.26l-.02-1.158-.876-.228-.876-.228-.54-.915c-.296-.502-.697-.914-.89-.914-.194 0-.597-.327-.896-.728-.299-.4-.635-.808-.747-.906C.141 7.755-.18 7.33-.18 6.746v-.674h6.597l.075-2.976.075-2.977.765-.087c.973-.111 1.21.275 1.215 1.975l.004 1.36.728.097c.4.054.995.06 1.323.012l.595-.087V1.391l.53-.48.53-.48.661.302.66.3v5.04h2.895c1.592 0 2.962.108 3.045.241.276.447-.37 1.628-1.13 2.063-.413.237-.945.77-1.182 1.182-.237.413-.733.866-1.103 1.007-.37.14-.673.419-.673.618 0 .509-.862 1.231-1.757 1.472l-.756.203-.02 1.156c-.012.635-.16 1.201-.331 1.258-.17.057-.31.51-.31 1.008v.904H6.964zm4.712-.352l-.09-.463H7.634l-.09.463-.089.463h4.311zm.58-2.183v-1.058H6.964v2.116h5.292zm-4.234 0c0-.145.12-.265.265-.265a.265.265 0 010 .53.265.265 0 01-.265-.265zm1.323 0c0-.145.12-.265.265-.265a.265.265 0 010 .53.265.265 0 01-.265-.265zm1.323 0c0-.145.12-.265.265-.265a.265.265 0 010 .53.265.265 0 01-.265-.265zm-3.704-2.249v-.661H4.299l.271.506c.32.596.678.767 1.666.796l.728.02zm5.027-.432c0-.643.225-1.457.546-1.977l.547-.884L13 7.338l-.083-.865-.402-.076-.402-.076-.316.838-.316.837-.948-.153-.948-.154-.295.647c-.162.355-.513.647-.781.647-.542 0-.664-.426-.169-.591l.318-.106-.463-.975c-.254-.536-.65-.974-.88-.974h-.417l.167 1.389c.372 3.104.466 3.785.569 4.1l.107.332h4.25zm1.97.93c.234-.09.546-.387.692-.661l.267-.498h-2.4v1.323h.508c.279 0 .699-.074.933-.164zM6.651 9.38l-.301-.661H4.408c-1.98 0-2.264.17-1.526.907l.415.416h3.656zm9.59.388c.282-.15.512-.448.512-.661v-.388H13.4l-.302.661-.301.662h1.467c.807 0 1.697-.123 1.979-.274zM6.388 7.461l.085-.595H.33l.27.506c.39.728.672.79 3.32.735l2.381-.05zm11.543.564c.234-.09.546-.387.692-.661l.267-.498h-5.311v1.323h1.963c1.08 0 2.155-.074 2.389-.164zM9.477 5.653V4.088h-.793l-.082 1.29c-.095 1.49.077 2.107.545 1.95l.33-.11zm1.72.022c0-1.43-.388-2.103-.82-1.423-.336.532-.29 2.457.069 2.815.52.52.751.093.751-1.392zM7.966 3.228L7.89.648h-.794l-.076 2.58-.075 2.58H8.04zm5.083.495V1.64l-.355-.295c-.576-.478-.703-.07-.703 2.259v2.205h1.058zm11.113 6.45V7.395h1.209l.784 1.454c.432.8.849 1.455.926 1.456.078 0 .495-.654.927-1.454l.784-1.454.595-.001h.596v5.555H28.95l-.08-1.653-.078-1.654-.667 1.19c-.366.656-.84 1.191-1.053 1.191-.212 0-.686-.535-1.053-1.19l-.667-1.19-.078 1.653-.08 1.653h-1.032zm7.144 0V7.395h3.968v.794h-2.91v1.587h2.646v.794h-2.646v1.588h2.91v.793h-3.968zm6.35.397V8.19h-1.853v-.794h4.762v.76l-.859.083-.86.083-.076 2.315-.077 2.315h-1.037zm2.72 2.05l1.12-2.792.989-2.461.556.08.556.08.983 2.514c.54 1.382.99 2.603.998 2.712.039.516-1.085.132-1.356-.463l-.301-.662h-2.022l-.166.662-.166.661h-1.322zm3.034-2.7c-.32-1.045-.556-1.014-.952.121l-.277.795h1.51zm2.977.254V7.395h1.059v4.763h3.174v.793h-4.233z"/></svg>