<?xml version="1.0" encoding="UTF-8" standalone="no"?>
<svg
   xmlns:dc="http://purl.org/dc/elements/1.1/"
   xmlns:cc="http://creativecommons.org/ns#"
   xmlns:rdf="http://www.w3.org/1999/02/22-rdf-syntax-ns#"
   xmlns:svg="http://www.w3.org/2000/svg"
   xmlns="http://www.w3.org/2000/svg"
   xmlns:sodipodi="http://sodipodi.sourceforge.net/DTD/sodipodi-0.dtd"
   xmlns:inkscape="http://www.inkscape.org/namespaces/inkscape"
   sodipodi:docname="logoSVg.svg"
   inkscape:version="1.0 (4035a4fb49, 2020-05-01)"
   id="svg8"
   version="1.1"
   viewBox="0 0 50.799999 17.197916"
   height="17.197916mm"
   width="50.799999mm">
  <defs
     id="defs2" />
  <sodipodi:namedview
     inkscape:window-maximized="1"
     inkscape:window-y="-9"
     inkscape:window-x="-9"
     inkscape:window-height="1001"
     inkscape:window-width="1920"
     fit-margin-bottom="0"
     fit-margin-right="0"
     fit-margin-left="0"
     fit-margin-top="0"
     showgrid="false"
     inkscape:document-rotation="0"
     inkscape:current-layer="layer1"
     inkscape:document-units="mm"
     inkscape:cy="-10.843335"
     inkscape:cx="-46.418361"
     inkscape:zoom="2.8"
     inkscape:pageshadow="2"
     inkscape:pageopacity="0.0"
     borderopacity="1.0"
     bordercolor="#666666"
     pagecolor="#ffffff"
     id="base" />
  <metadata
     id="metadata5">
    <rdf:RDF>
      <cc:Work
         rdf:about="">
        <dc:format>image/svg+xml</dc:format>
        <dc:type
           rdf:resource="http://purl.org/dc/dcmitype/StillImage" />
        <dc:title></dc:title>
      </cc:Work>
    </rdf:RDF>
  </metadata>
  <g
     transform="translate(-137.12976,-214.407)"
     id="layer1"
     inkscape:groupmode="layer"
     inkscape:label="Warstwa 1">
    <path
       id="path26"
       d="m 144.09363,230.68763 c 0,-0.49719 -0.13959,-0.95052 -0.31021,-1.00739 -0.17061,-0.0569 -0.31944,-0.62426 -0.33073,-1.26085 l -0.0205,-1.15745 -0.8757,-0.22806 -0.8757,-0.22807 -0.53949,-0.91439 c -0.29673,-0.50291 -0.69769,-0.91438 -0.89104,-0.91438 -0.19334,0 -0.59627,-0.32742 -0.8954,-0.7276 -0.29912,-0.40018 -0.63518,-0.80824 -0.74681,-0.9068 -1.33742,-1.1809 -1.65815,-1.60451 -1.65815,-2.19003 v -0.67348 h 3.29863 3.29862 l 0.0748,-2.97657 0.0748,-2.97656 0.76505,-0.0873 c 0.9725,-0.11102 1.21021,0.2754 1.21528,1.97553 l 0.004,1.35903 0.7276,0.0982 c 0.40019,0.054 0.9955,0.0592 1.32292,0.0116 l 0.59531,-0.0866 v -0.99892 -0.99893 l 0.53024,-0.47986 0.53025,-0.47986 0.66038,0.30089 0.66038,0.30089 v 2.51921 2.51922 h 2.8948 c 1.59215,0 2.96222,0.10907 3.04461,0.24238 0.27592,0.44645 -0.37055,1.62707 -1.12942,2.06261 -0.41307,0.23707 -0.94501,0.76901 -1.18208,1.18208 -0.23707,0.41307 -0.73362,0.86608 -1.10343,1.00669 -0.36982,0.1406 -0.67239,0.41873 -0.67239,0.61806 0,0.50888 -0.86257,1.23137 -1.75751,1.47208 l -0.75604,0.20335 -0.0205,1.15523 c -0.0113,0.63537 -0.16011,1.20176 -0.33073,1.25863 -0.17061,0.0569 -0.3102,0.5102 -0.3102,1.00739 v 0.904 h -2.64584 -2.64583 z m 4.71213,-0.35277 -0.0892,-0.46303 h -1.97713 -1.97712 l -0.0892,0.46303 -0.0892,0.46302 h 2.15546 2.15547 z m 0.57954,-2.18282 v -1.05833 h -2.64584 -2.64583 v 1.05833 1.05834 h 2.64583 2.64584 z m -4.23334,0 c 0,-0.14552 0.11907,-0.26458 0.26459,-0.26458 0.14552,0 0.26458,0.11906 0.26458,0.26458 0,0.14552 -0.11906,0.26459 -0.26458,0.26459 -0.14552,0 -0.26459,-0.11907 -0.26459,-0.26459 z m 1.32292,0 c 0,-0.14552 0.11906,-0.26458 0.26458,-0.26458 0.14552,0 0.26459,0.11906 0.26459,0.26458 0,0.14552 -0.11907,0.26459 -0.26459,0.26459 -0.14552,0 -0.26458,-0.11907 -0.26458,-0.26459 z m 1.32292,0 c 0,-0.14552 0.11906,-0.26458 0.26458,-0.26458 0.14552,0 0.26458,0.11906 0.26458,0.26458 0,0.14552 -0.11906,0.26459 -0.26458,0.26459 -0.14552,0 -0.26458,-0.11907 -0.26458,-0.26459 z m -3.70417,-2.24896 v -0.66145 h -1.33223 -1.33222 l 0.27086,0.5061 c 0.31906,0.59618 0.67778,0.76756 1.66599,0.79592 l 0.7276,0.0209 z m 5.02708,-0.43179 c 0,-0.64298 0.22506,-1.4574 0.54645,-1.97742 l 0.54645,-0.88417 -0.0834,-0.86468 -0.0834,-0.86468 -0.40211,-0.076 -0.40212,-0.076 -0.31614,0.83755 -0.31615,0.83756 -0.94772,-0.15379 -0.94773,-0.1538 -0.29471,0.64683 c -0.16209,0.35575 -0.51373,0.64682 -0.78141,0.64682 -0.54225,0 -0.66404,-0.42595 -0.16898,-0.59097 l 0.31771,-0.10591 -0.46242,-0.97447 c -0.25433,-0.53597 -0.65017,-0.97448 -0.87964,-0.97448 h -0.41723 l 0.16649,1.38906 c 0.37213,3.10471 0.4665,3.78497 0.56897,4.10104 l 0.10721,0.33073 h 2.12497 2.12497 z m 1.97009,0.92983 c 0.23422,-0.0899 0.54581,-0.38753 0.69241,-0.66146 l 0.26654,-0.49803 h -1.19994 -1.19993 v 0.66145 0.66146 h 0.50753 c 0.27914,0 0.69916,-0.0735 0.93339,-0.16342 z m -7.3099,-2.6147 -0.30138,-0.66146 h -1.9419 c -1.97918,0 -2.26399,0.16929 -1.52613,0.90714 l 0.41577,0.41578 h 1.82751 1.82752 z m 9.59054,0.38756 c 0.28148,-0.15064 0.51177,-0.44829 0.51177,-0.66145 v -0.38757 h -1.67732 -1.67732 l -0.30138,0.66146 -0.30138,0.66146 h 1.46693 c 0.80681,0 1.69723,-0.12326 1.9787,-0.2739 z m -9.85472,-2.30579 0.0846,-0.59531 h -3.07042 -3.07042 l 0.27086,0.5061 c 0.38947,0.72774 0.67158,0.79017 3.31963,0.73454 l 2.38125,-0.05 z m 11.54283,0.56418 c 0.23422,-0.0899 0.54581,-0.38753 0.69241,-0.66145 l 0.26654,-0.49804 h -2.65514 -2.65515 v 0.66145 0.66146 h 1.96274 c 1.0795,0 2.15437,-0.0735 2.3886,-0.16342 z m -8.45238,-2.37217 v -1.56545 h -0.39687 -0.39688 l -0.082,1.2893 c -0.0948,1.49158 0.0773,2.10776 0.54513,1.9518 l 0.33059,-0.1102 z m 1.71979,0.0221 c 0,-1.42937 -0.38818,-2.10358 -0.81928,-1.42296 -0.33658,0.53141 -0.29015,2.45665 0.0679,2.81469 0.52054,0.52054 0.75139,0.093 0.75139,-1.39173 z m -3.23156,-2.44739 -0.0757,-2.57969 h -0.39687 -0.39688 l -0.0757,2.57969 -0.0757,2.57968 h 0.54833 0.54833 z m 5.08365,0.49541 v -2.08427 l -0.35508,-0.29468 c -0.57629,-0.47828 -0.70326,-0.0705 -0.70326,2.25836 v 2.20486 h 0.52917 0.52917 z m 11.1125,6.4499 v -2.77813 h 0.60459 0.60459 l 0.78447,1.45429 c 0.43146,0.79985 0.84818,1.4547 0.92604,1.4552 0.0779,5.1e-4 0.49459,-0.6535 0.92604,-1.45335 l 0.78447,-1.45429 0.59532,-9.2e-4 0.59531,-9.3e-4 v 2.77813 2.77812 h -0.51654 -0.51654 l -0.0788,-1.65364 -0.0788,-1.65365 -0.66662,1.19063 c -0.36664,0.65484 -0.84056,1.19062 -1.05317,1.19062 -0.2126,0 -0.68653,-0.53578 -1.05317,-1.19062 l -0.66662,-1.19063 -0.0788,1.65365 -0.0788,1.65364 h -0.51654 -0.51654 z m 7.14375,0 v -2.77813 h 1.98437 1.98438 v 0.39688 0.39687 h -1.45521 -1.45521 v 0.79375 0.79375 h 1.32292 1.32291 v 0.39688 0.39687 h -1.32291 -1.32292 v 0.79375 0.79375 h 1.45521 1.45521 v 0.39688 0.39687 h -1.98438 -1.98437 z m 6.35,0.39687 v -2.38125 h -0.92605 -0.92604 v -0.39687 -0.39688 h 2.38125 2.38125 v 0.38011 0.38012 l -0.85989,0.0829 -0.8599,0.0829 -0.0765,2.31511 -0.0764,2.3151 h -0.51887 -0.51886 z m 2.72008,2.05052 c 0.072,-0.1819 0.57598,-1.43837 1.12002,-2.79215 l 0.98916,-2.46142 0.55586,0.0802 0.55586,0.0802 0.98343,2.51355 c 0.54089,1.38244 0.99011,2.60283 0.99826,2.71198 0.0385,0.51571 -1.08507,0.13211 -1.35623,-0.46303 l -0.30138,-0.66145 h -1.01083 -1.01082 l -0.16602,0.66145 -0.16601,0.66146 h -0.66108 -0.66109 z m 3.03464,-2.70204 c -0.32047,-1.04418 -0.55644,-1.01399 -0.95241,0.12187 l -0.27687,0.79424 h 0.75522 0.75522 z m 2.97653,0.25465 v -2.77813 h 0.52916 0.52917 v 2.38125 2.38125 h 1.5875 1.5875 v 0.39688 0.39687 h -2.11667 -2.11666 z"
       style="fill:#000000;stroke-width:1" />
  </g>
</svg>
